<mxfile host="app.diagrams.net" modified="2022-02-17T18:57:13.061Z" agent="5.0 (Windows)" etag="8nqWRXIM8a2XXb9G0V5z" version="16.5.6" type="github">
  <diagram id="OKhErWQb7rbD11phgGq5" name="Page-1">
    <mxGraphModel dx="1483" dy="806" grid="1" gridSize="10" guides="1" tooltips="1" connect="1" arrows="1" fold="1" page="1" pageScale="1" pageWidth="850" pageHeight="1100" math="0" shadow="0">
      <root>
        <mxCell id="0" />
        <mxCell id="1" parent="0" />
        <mxCell id="wicbFJvC92bKRZjQl9RK-47" value="" style="sketch=0;points=[[0,0,0],[0.25,0,0],[0.5,0,0],[0.75,0,0],[1,0,0],[0,1,0],[0.25,1,0],[0.5,1,0],[0.75,1,0],[1,1,0],[0,0.25,0],[0,0.5,0],[0,0.75,0],[1,0.25,0],[1,0.5,0],[1,0.75,0]];outlineConnect=0;fontColor=#232F3E;gradientColor=#FF4F8B;gradientDirection=north;fillColor=#BC1356;strokeColor=#ffffff;dashed=0;verticalLabelPosition=bottom;verticalAlign=top;align=center;html=1;fontSize=12;fontStyle=0;aspect=fixed;shape=mxgraph.aws4.resourceIcon;resIcon=mxgraph.aws4.api_gateway;" vertex="1" parent="1">
          <mxGeometry x="570" y="206" width="78" height="78" as="geometry" />
        </mxCell>
        <mxCell id="wicbFJvC92bKRZjQl9RK-48" value="" style="edgeStyle=orthogonalEdgeStyle;rounded=0;orthogonalLoop=1;jettySize=auto;html=1;entryX=0;entryY=0.5;entryDx=0;entryDy=0;endArrow=none;endFill=0;" edge="1" parent="1" source="wicbFJvC92bKRZjQl9RK-49" target="wicbFJvC92bKRZjQl9RK-61">
          <mxGeometry relative="1" as="geometry">
            <mxPoint x="217" y="388.9999999999998" as="targetPoint" />
          </mxGeometry>
        </mxCell>
        <mxCell id="wicbFJvC92bKRZjQl9RK-49" value="" style="sketch=0;points=[[0,0,0],[0.25,0,0],[0.5,0,0],[0.75,0,0],[1,0,0],[0,1,0],[0.25,1,0],[0.5,1,0],[0.75,1,0],[1,1,0],[0,0.25,0],[0,0.5,0],[0,0.75,0],[1,0.25,0],[1,0.5,0],[1,0.75,0]];outlineConnect=0;fontColor=#232F3E;gradientColor=#4D72F3;gradientDirection=north;fillColor=#3334B9;strokeColor=#ffffff;dashed=0;verticalLabelPosition=bottom;verticalAlign=top;align=center;html=1;fontSize=12;fontStyle=0;aspect=fixed;shape=mxgraph.aws4.resourceIcon;resIcon=mxgraph.aws4.customer_enablement;" vertex="1" parent="1">
          <mxGeometry x="80" y="350" width="78" height="78" as="geometry" />
        </mxCell>
        <mxCell id="wicbFJvC92bKRZjQl9RK-50" value="" style="sketch=0;points=[[0,0,0],[0.25,0,0],[0.5,0,0],[0.75,0,0],[1,0,0],[0,1,0],[0.25,1,0],[0.5,1,0],[0.75,1,0],[1,1,0],[0,0.25,0],[0,0.5,0],[0,0.75,0],[1,0.25,0],[1,0.5,0],[1,0.75,0]];outlineConnect=0;fontColor=#232F3E;gradientColor=#60A337;gradientDirection=north;fillColor=#277116;strokeColor=#ffffff;dashed=0;verticalLabelPosition=bottom;verticalAlign=top;align=center;html=1;fontSize=12;fontStyle=0;aspect=fixed;shape=mxgraph.aws4.resourceIcon;resIcon=mxgraph.aws4.s3;" vertex="1" parent="1">
          <mxGeometry x="290" y="60" width="78" height="78" as="geometry" />
        </mxCell>
        <mxCell id="wicbFJvC92bKRZjQl9RK-51" value="m" style="outlineConnect=0;dashed=0;verticalLabelPosition=bottom;verticalAlign=top;align=center;html=1;shape=mxgraph.aws3.dynamo_db;fillColor=#2E73B8;gradientColor=none;" vertex="1" parent="1">
          <mxGeometry x="1090" y="348.5" width="72" height="81" as="geometry" />
        </mxCell>
        <mxCell id="wicbFJvC92bKRZjQl9RK-52" value="" style="sketch=0;points=[[0,0,0],[0.25,0,0],[0.5,0,0],[0.75,0,0],[1,0,0],[0,1,0],[0.25,1,0],[0.5,1,0],[0.75,1,0],[1,1,0],[0,0.25,0],[0,0.5,0],[0,0.75,0],[1,0.25,0],[1,0.5,0],[1,0.75,0]];outlineConnect=0;fontColor=#232F3E;gradientColor=#F78E04;gradientDirection=north;fillColor=#D05C17;strokeColor=#ffffff;dashed=0;verticalLabelPosition=bottom;verticalAlign=top;align=center;html=1;fontSize=12;fontStyle=0;aspect=fixed;shape=mxgraph.aws4.resourceIcon;resIcon=mxgraph.aws4.lambda;" vertex="1" parent="1">
          <mxGeometry x="810" y="524" width="66" height="66" as="geometry" />
        </mxCell>
        <mxCell id="wicbFJvC92bKRZjQl9RK-53" value="" style="sketch=0;points=[[0,0,0],[0.25,0,0],[0.5,0,0],[0.75,0,0],[1,0,0],[0,1,0],[0.25,1,0],[0.5,1,0],[0.75,1,0],[1,1,0],[0,0.25,0],[0,0.5,0],[0,0.75,0],[1,0.25,0],[1,0.5,0],[1,0.75,0]];outlineConnect=0;fontColor=#232F3E;gradientColor=#F78E04;gradientDirection=north;fillColor=#D05C17;strokeColor=#ffffff;dashed=0;verticalLabelPosition=bottom;verticalAlign=top;align=center;html=1;fontSize=12;fontStyle=0;aspect=fixed;shape=mxgraph.aws4.resourceIcon;resIcon=mxgraph.aws4.lambda;" vertex="1" parent="1">
          <mxGeometry x="810" y="210" width="60" height="60" as="geometry" />
        </mxCell>
        <mxCell id="wicbFJvC92bKRZjQl9RK-54" value="" style="sketch=0;points=[[0,0,0],[0.25,0,0],[0.5,0,0],[0.75,0,0],[1,0,0],[0,1,0],[0.25,1,0],[0.5,1,0],[0.75,1,0],[1,1,0],[0,0.25,0],[0,0.5,0],[0,0.75,0],[1,0.25,0],[1,0.5,0],[1,0.75,0]];outlineConnect=0;fontColor=#232F3E;gradientColor=#F78E04;gradientDirection=north;fillColor=#D05C17;strokeColor=#ffffff;dashed=0;verticalLabelPosition=bottom;verticalAlign=top;align=center;html=1;fontSize=12;fontStyle=0;aspect=fixed;shape=mxgraph.aws4.resourceIcon;resIcon=mxgraph.aws4.lambda;" vertex="1" parent="1">
          <mxGeometry x="810" y="358" width="61" height="61" as="geometry" />
        </mxCell>
        <mxCell id="wicbFJvC92bKRZjQl9RK-55" value="" style="edgeStyle=elbowEdgeStyle;elbow=horizontal;endArrow=none;html=1;rounded=0;exitX=1;exitY=0.5;exitDx=0;exitDy=0;exitPerimeter=0;endFill=0;" edge="1" parent="1" source="wicbFJvC92bKRZjQl9RK-53" target="wicbFJvC92bKRZjQl9RK-51">
          <mxGeometry width="50" height="50" relative="1" as="geometry">
            <mxPoint x="940" y="280" as="sourcePoint" />
            <mxPoint x="1080" y="389.9999999999998" as="targetPoint" />
            <Array as="points">
              <mxPoint x="1060" y="360" />
              <mxPoint x="1070" y="370" />
              <mxPoint x="1050" y="330" />
            </Array>
          </mxGeometry>
        </mxCell>
        <mxCell id="wicbFJvC92bKRZjQl9RK-56" value="&lt;div&gt;Store Images&lt;/div&gt;&lt;div&gt;&lt;br&gt;&lt;/div&gt;" style="text;html=1;strokeColor=none;fillColor=none;align=center;verticalAlign=middle;whiteSpace=wrap;rounded=0;" vertex="1" parent="1">
          <mxGeometry x="606" y="70" width="60" height="30" as="geometry" />
        </mxCell>
        <mxCell id="wicbFJvC92bKRZjQl9RK-57" value="" style="edgeStyle=elbowEdgeStyle;elbow=horizontal;endArrow=none;html=1;rounded=0;exitX=1;exitY=0.5;exitDx=0;exitDy=0;exitPerimeter=0;entryX=0;entryY=0.78;entryDx=0;entryDy=0;entryPerimeter=0;endFill=0;" edge="1" parent="1" source="wicbFJvC92bKRZjQl9RK-52" target="wicbFJvC92bKRZjQl9RK-51">
          <mxGeometry width="50" height="50" relative="1" as="geometry">
            <mxPoint x="940" y="549.9999999999998" as="sourcePoint" />
            <mxPoint x="1080" y="409.9999999999998" as="targetPoint" />
            <Array as="points">
              <mxPoint x="1050" y="520" />
            </Array>
          </mxGeometry>
        </mxCell>
        <mxCell id="wicbFJvC92bKRZjQl9RK-58" value="Orders Services" style="text;html=1;strokeColor=none;fillColor=none;align=center;verticalAlign=middle;whiteSpace=wrap;rounded=0;" vertex="1" parent="1">
          <mxGeometry x="810.5" y="480" width="60" height="30" as="geometry" />
        </mxCell>
        <mxCell id="wicbFJvC92bKRZjQl9RK-59" value="" style="edgeStyle=orthogonalEdgeStyle;rounded=0;orthogonalLoop=1;jettySize=auto;html=1;entryX=0.5;entryY=1;entryDx=0;entryDy=0;entryPerimeter=0;endArrow=none;endFill=0;" edge="1" parent="1" source="wicbFJvC92bKRZjQl9RK-61" target="wicbFJvC92bKRZjQl9RK-50">
          <mxGeometry relative="1" as="geometry">
            <mxPoint x="343.5" y="279" as="targetPoint" />
          </mxGeometry>
        </mxCell>
        <mxCell id="wicbFJvC92bKRZjQl9RK-60" value="" style="edgeStyle=orthogonalEdgeStyle;rounded=0;orthogonalLoop=1;jettySize=auto;html=1;entryX=0;entryY=0.5;entryDx=0;entryDy=0;entryPerimeter=0;endArrow=none;endFill=0;" edge="1" parent="1">
          <mxGeometry relative="1" as="geometry">
            <mxPoint x="407.5" y="392" as="sourcePoint" />
            <mxPoint x="569" y="248" as="targetPoint" />
            <Array as="points">
              <mxPoint x="480" y="392" />
              <mxPoint x="480" y="248" />
            </Array>
          </mxGeometry>
        </mxCell>
        <mxCell id="wicbFJvC92bKRZjQl9RK-61" value="" style="strokeColor=#dddddd;shadow=1;strokeWidth=1;rounded=1;absoluteArcSize=1;arcSize=2;" vertex="1" parent="1">
          <mxGeometry x="278.5" y="359" width="130" height="60" as="geometry" />
        </mxCell>
        <mxCell id="wicbFJvC92bKRZjQl9RK-62" value="&lt;font color=&quot;#000000&quot;&gt;Name&lt;/font&gt;&lt;br&gt;Cloud  CDN" style="sketch=0;dashed=0;connectable=0;html=1;fillColor=#5184F3;strokeColor=none;shape=mxgraph.gcp2.hexIcon;prIcon=cloud_cdn;part=1;labelPosition=right;verticalLabelPosition=middle;align=left;verticalAlign=middle;spacingLeft=5;fontColor=#999999;fontSize=12;" vertex="1" parent="wicbFJvC92bKRZjQl9RK-61">
          <mxGeometry y="0.5" width="44" height="39" relative="1" as="geometry">
            <mxPoint x="5" y="-19.5" as="offset" />
          </mxGeometry>
        </mxCell>
        <mxCell id="wicbFJvC92bKRZjQl9RK-63" value="" style="sketch=0;points=[[0,0,0],[0.25,0,0],[0.5,0,0],[0.75,0,0],[1,0,0],[0,1,0],[0.25,1,0],[0.5,1,0],[0.75,1,0],[1,1,0],[0,0.25,0],[0,0.5,0],[0,0.75,0],[1,0.25,0],[1,0.5,0],[1,0.75,0]];outlineConnect=0;fontColor=#232F3E;gradientColor=#FF4F8B;gradientDirection=north;fillColor=#BC1356;strokeColor=#ffffff;dashed=0;verticalLabelPosition=bottom;verticalAlign=top;align=center;html=1;fontSize=12;fontStyle=0;aspect=fixed;shape=mxgraph.aws4.resourceIcon;resIcon=mxgraph.aws4.api_gateway;" vertex="1" parent="1">
          <mxGeometry x="570" y="510" width="78" height="78" as="geometry" />
        </mxCell>
        <mxCell id="wicbFJvC92bKRZjQl9RK-64" value="" style="sketch=0;points=[[0,0,0],[0.25,0,0],[0.5,0,0],[0.75,0,0],[1,0,0],[0,1,0],[0.25,1,0],[0.5,1,0],[0.75,1,0],[1,1,0],[0,0.25,0],[0,0.5,0],[0,0.75,0],[1,0.25,0],[1,0.5,0],[1,0.75,0]];outlineConnect=0;fontColor=#232F3E;gradientColor=#FF4F8B;gradientDirection=north;fillColor=#BC1356;strokeColor=#ffffff;dashed=0;verticalLabelPosition=bottom;verticalAlign=top;align=center;html=1;fontSize=12;fontStyle=0;aspect=fixed;shape=mxgraph.aws4.resourceIcon;resIcon=mxgraph.aws4.api_gateway;" vertex="1" parent="1">
          <mxGeometry x="570" y="351.5" width="78" height="78" as="geometry" />
        </mxCell>
        <mxCell id="wicbFJvC92bKRZjQl9RK-65" value="" style="edgeStyle=orthogonalEdgeStyle;rounded=0;orthogonalLoop=1;jettySize=auto;html=1;endArrow=none;endFill=0;" edge="1" parent="1">
          <mxGeometry relative="1" as="geometry">
            <mxPoint x="408.5" y="392.07692307692287" as="sourcePoint" />
            <mxPoint x="570" y="547" as="targetPoint" />
            <Array as="points">
              <mxPoint x="480" y="392" />
              <mxPoint x="480" y="547" />
            </Array>
          </mxGeometry>
        </mxCell>
        <mxCell id="wicbFJvC92bKRZjQl9RK-66" value="" style="edgeStyle=orthogonalEdgeStyle;rounded=0;orthogonalLoop=1;jettySize=auto;html=1;entryX=0;entryY=0.5;entryDx=0;entryDy=0;entryPerimeter=0;endArrow=none;endFill=0;" edge="1" parent="1">
          <mxGeometry relative="1" as="geometry">
            <mxPoint x="418.5" y="393.07692307692287" as="sourcePoint" />
            <mxPoint x="570" y="391.5" as="targetPoint" />
            <Array as="points">
              <mxPoint x="419" y="392" />
              <mxPoint x="570" y="392" />
            </Array>
          </mxGeometry>
        </mxCell>
        <mxCell id="wicbFJvC92bKRZjQl9RK-67" value="" style="edgeStyle=orthogonalEdgeStyle;rounded=0;orthogonalLoop=1;jettySize=auto;html=1;endArrow=none;endFill=0;" edge="1" parent="1" target="wicbFJvC92bKRZjQl9RK-54">
          <mxGeometry relative="1" as="geometry">
            <mxPoint x="648" y="389" as="sourcePoint" />
            <mxPoint x="800" y="390" as="targetPoint" />
            <Array as="points">
              <mxPoint x="648" y="389" />
            </Array>
          </mxGeometry>
        </mxCell>
        <mxCell id="wicbFJvC92bKRZjQl9RK-68" value="" style="edgeStyle=orthogonalEdgeStyle;rounded=0;orthogonalLoop=1;jettySize=auto;html=1;endArrow=none;endFill=0;" edge="1" parent="1">
          <mxGeometry relative="1" as="geometry">
            <mxPoint x="648" y="556.6600000000001" as="sourcePoint" />
            <mxPoint x="810" y="556.6600000000001" as="targetPoint" />
            <Array as="points">
              <mxPoint x="648" y="556.6600000000001" />
            </Array>
          </mxGeometry>
        </mxCell>
        <mxCell id="wicbFJvC92bKRZjQl9RK-69" value="" style="edgeStyle=orthogonalEdgeStyle;rounded=0;orthogonalLoop=1;jettySize=auto;html=1;endArrow=none;endFill=0;" edge="1" parent="1">
          <mxGeometry relative="1" as="geometry">
            <mxPoint x="648" y="239.65999999999963" as="sourcePoint" />
            <mxPoint x="810" y="239.65999999999963" as="targetPoint" />
            <Array as="points">
              <mxPoint x="648" y="239.65999999999997" />
            </Array>
          </mxGeometry>
        </mxCell>
        <mxCell id="wicbFJvC92bKRZjQl9RK-70" value="" style="edgeStyle=orthogonalEdgeStyle;rounded=0;orthogonalLoop=1;jettySize=auto;html=1;entryX=0;entryY=0.5;entryDx=0;entryDy=0;entryPerimeter=0;endArrow=none;endFill=0;" edge="1" parent="1" target="wicbFJvC92bKRZjQl9RK-51">
          <mxGeometry relative="1" as="geometry">
            <mxPoint x="871" y="388.15999999999985" as="sourcePoint" />
            <mxPoint x="1033" y="388.15999999999997" as="targetPoint" />
            <Array as="points" />
          </mxGeometry>
        </mxCell>
        <mxCell id="wicbFJvC92bKRZjQl9RK-71" value="User Services" style="text;html=1;strokeColor=none;fillColor=none;align=center;verticalAlign=middle;whiteSpace=wrap;rounded=0;" vertex="1" parent="1">
          <mxGeometry x="813" y="321.5" width="60" height="30" as="geometry" />
        </mxCell>
        <mxCell id="wicbFJvC92bKRZjQl9RK-72" value="" style="edgeStyle=orthogonalEdgeStyle;rounded=0;orthogonalLoop=1;jettySize=auto;html=1;endArrow=classic;endFill=1;" edge="1" parent="1" source="wicbFJvC92bKRZjQl9RK-53">
          <mxGeometry relative="1" as="geometry">
            <mxPoint x="750" y="204" as="sourcePoint" />
            <mxPoint x="370" y="100" as="targetPoint" />
            <Array as="points">
              <mxPoint x="822" y="100" />
            </Array>
          </mxGeometry>
        </mxCell>
        <mxCell id="wicbFJvC92bKRZjQl9RK-73" value="&lt;div&gt;Books/Categories Services&lt;/div&gt;&lt;div&gt;&lt;br&gt;&lt;/div&gt;" style="text;html=1;strokeColor=none;fillColor=none;align=center;verticalAlign=middle;whiteSpace=wrap;rounded=0;" vertex="1" parent="1">
          <mxGeometry x="813" y="180" width="130" height="26" as="geometry" />
        </mxCell>
      </root>
    </mxGraphModel>
  </diagram>
</mxfile>
